<?xml version="1.0" encoding="utf-8"?>
<!-- Generator: Adobe Illustrator 15.0.0, SVG Export Plug-In  -->
<!DOCTYPE svg PUBLIC "-//W3C//DTD SVG 1.1//EN" "http://www.w3.org/Graphics/SVG/1.1/DTD/svg11.dtd" [
	<!ENTITY ns_flows "http://ns.adobe.com/Flows/1.0/">
]>
<svg version="1.1"
	 xmlns="http://www.w3.org/2000/svg" xmlns:xlink="http://www.w3.org/1999/xlink" xmlns:a="http://ns.adobe.com/AdobeSVGViewerExtensions/3.0/"
	 x="0px" y="0px" width="1191px" height="842px" viewBox="-241.661 -311.039 1191 842"
	 enable-background="new -241.661 -311.039 1191 842" xml:space="preserve">
<defs>
</defs>
<linearGradient id="SVGID_1_" gradientUnits="userSpaceOnUse" x1="100.8047" y1="108.6558" x2="100.8047" y2="26.3413" gradientTransform="matrix(1 0 -0.0875 1 -26.9181 0)">
	<stop  offset="0" style="stop-color:#EF9100"/>
	<stop  offset="0" style="stop-color:#F8BF00"/>
	<stop  offset="0" style="stop-color:#F29400"/>
	<stop  offset="1" style="stop-color:#FFED00"/>
</linearGradient>
<path fill="url(#SVGID_1_)" d="M86.036,36.819c0,0,3.683,7.668-5.585,35.526c-9.552,28.712-15.014,31.221-17.684,33.736
	c-1.763,1.662-6.391,3.833-8.337,1.662c-1.947-2.172-5.421-5.78-5.421-5.78s5.37,7.111,11.184-0.993
	c4.489-6.261,9.52-17.742,12.232-29.136c2.403-10.095,6.843-39.428-0.671-41.906c-5.521-1.82-15.838,9.064-17.933,9.958
	c-2.095,0.895,16.675-13.545,16.675-13.545l9.481,0.488l5.363,2.157L86.036,36.819z"/>
<linearGradient id="SVGID_2_" gradientUnits="userSpaceOnUse" x1="139.0083" y1="90.2773" x2="139.0083" y2="16.1943" gradientTransform="matrix(1 0 -0.0875 1 -26.9181 0)">
	<stop  offset="0" style="stop-color:#EF9100"/>
	<stop  offset="0" style="stop-color:#F8BF00"/>
	<stop  offset="0" style="stop-color:#F29400"/>
	<stop  offset="1" style="stop-color:#FFED00"/>
</linearGradient>
<path fill="url(#SVGID_2_)" d="M123.438,25.625c0,0,4.194,6.969-4.443,31.973c-7.889,22.837-14.912,28.867-16.499,30.362
	c-1.587,1.495-5.752,3.45-7.504,1.495c-1.753-1.955-2.039-5.404-2.039-5.404s1.176,6.602,6.407-0.69
	c3.203-4.465,9.15-17.137,11.313-26.223s6.626-32.153-0.771-34.453c-5.005-1.557-13.574,4.895-15.46,5.7
	c-1.885,0.805,15.009-12.191,15.009-12.191l9.046,0.222l3.528,2.378L123.438,25.625z"/>
<linearGradient id="SVGID_3_" gradientUnits="userSpaceOnUse" x1="41.0093" y1="88.9053" x2="115.8677" y2="88.9053" gradientTransform="matrix(1 0 -0.0875 1 -26.9181 0)">
	<stop  offset="0" style="stop-color:#E2001A"/>
	<stop  offset="0.3333" style="stop-color:#E95D0F"/>
	<stop  offset="1" style="stop-color:#EC7404"/>
</linearGradient>
<path fill="url(#SVGID_3_)" d="M86.07,31.208c0.813-3.313-2.092-14.48-11.126-14.467C55.742,16.769,36.085,43.235,22.31,74.097
	C4.404,114.211,0,161.041,0,161.041l8.745,0.028c0,0,5.32-46.02,22.817-81.825s37.753-51.986,45.94-51.753
	c3.32,0.096,8.213,4.417,8.236,9.209L86.07,31.208z"/>
<linearGradient id="SVGID_4_" gradientUnits="userSpaceOnUse" x1="81.6924" y1="60.3154" x2="153.1704" y2="60.3154" gradientTransform="matrix(1 0 -0.0875 1 -26.9181 0)">
	<stop  offset="0" style="stop-color:#E2001A"/>
	<stop  offset="0.3333" style="stop-color:#E95D0F"/>
	<stop  offset="1" style="stop-color:#EC7404"/>
</linearGradient>
<path fill="url(#SVGID_4_)" d="M123.725,27.898l0.103-0.19c0.192-7.165-0.051-17.833-8.325-18.887
	C101.895,7.088,81.579,24.496,59.7,62.799c-21.879,38.303-12.407,49.042-5.321,49.128c6.038,0.073,12.809-10.273,12.824-10.298
	c-0.686,0.883-4.583,5.853-9.164,6.134c-4.743,0.293-1.111-20.705,12.223-43.924c16.246-28.29,39.465-46.815,46.968-45.219
	C121.305,19.488,120.879,19.755,123.725,27.898z"/>
<linearGradient id="SVGID_5_" gradientUnits="userSpaceOnUse" x1="121.9082" y1="46.3428" x2="177.9336" y2="46.3428" gradientTransform="matrix(1 0 -0.0875 1 -26.9181 0)">
	<stop  offset="0" style="stop-color:#E2001A"/>
	<stop  offset="0.3333" style="stop-color:#E95D0F"/>
	<stop  offset="1" style="stop-color:#EC7404"/>
</linearGradient>
<path fill="url(#SVGID_5_)" d="M151.016,0c-13.508,4.719-34.613,17.726-51.274,48.471c-18.876,34.831-11.096,44.138-4.72,44.215
	c5.844,0.07,12.065-9.976,12.065-9.976s-3.583,5.846-8.77,6.229c-5.874,0.433,0.087-18.75,11.747-39.532
	c12.906-23.001,25.055-31.211,39.988-38.918L151.016,0z"/>
<path fill="#67686E" d="M242.125,119.31h-16.396V55.814h-0.232c-8.954,22.676-18.258,43.146-27.445,63.496h-8.837
	c-8.723-20.35-17.563-40.82-26.05-63.496h-0.233v63.496H149.79V37.904h20.233c8.374,20.003,21.863,51.868,25.004,62.334h0.232
	c3.837-10.933,18.493-42.331,27.794-62.334h19.072V119.31z"/>
<path fill="#67686E" d="M268.292,91.632c-0.349,10.933,7.328,19.073,16.979,19.073c5.701,0,11.747-1.978,15.583-4.652l4.421,8.141
	c-7.909,4.651-16.167,6.511-22.794,6.511c-17.559,0-30.702-12.442-30.702-31.631c0-17.908,13.026-29.306,29.657-29.306
	c18.14,0,25.7,14.537,24.538,31.865H268.292z M291.437,83.258c0.581-8.837-2.561-14.885-10.235-14.885
	c-8.84,0-12.793,7.094-12.676,14.885H291.437z"/>
<path fill="#67686E" d="M334.578,61.163h15.234v7.91h-15.234v28.607c0,9.536,2.909,13.606,8.026,13.606
	c3.372,0,5.349-0.93,7.441-1.978l2.677,7.677c-4.537,2.442-10.118,3.72-15.235,3.72c-12.792,0-18.375-6.743-18.375-18.606V69.072
	h-8.139v-7.91h8.139V47.208l15.466-3.488V61.163z"/>
<path fill="#67686E" d="M374.585,71.397h0.232l3.139-4.536c1.86-2.443,5.232-7.094,10.002-7.094c3.488,0,7.209,1.861,10.465,5.233
	L392.61,75.7c-2.559-1.279-4.188-1.977-7.33-1.977c-5.348,0-10.579,4.303-10.579,16.862v28.725h-15.468V61.163h15.352V71.397z"/>
<path fill="#67686E" d="M395.632,89.539c0-18.839,14.887-29.772,30.469-29.772c15.699,0,30.586,10.933,30.586,29.772
	c0,18.025-12.328,31.165-30.586,31.165C407.959,120.704,395.632,107.564,395.632,89.539z M440.29,89.539
	c0-9.654-3.375-21.166-14.189-21.166c-10.584,0-14.071,11.512-14.071,21.166c0,10.235,3.023,22.561,14.071,22.561
	C437.38,112.1,440.29,99.774,440.29,89.539z"/>
<path fill="#67686E" d="M480.06,69.188h0.232c4.07-5.933,11.629-9.421,18.607-9.421c18.26,0,25.7,16.397,25.7,29.19
	c0,15.351-10.467,31.747-27.097,31.747c-7.092,0-13.141-3.487-17.443-8.604v36.285h-15.467V61.163h15.467V69.188z M480.06,90.934
	c0,12.212,5.934,20.469,14.305,20.469c10.351,0,13.84-12.094,13.84-22.329c0-10.002-4.42-20.001-13.259-20.001
	C485.179,69.072,480.06,77.56,480.06,90.934z"/>
<path fill="#67686E" d="M531.578,89.539c0-18.839,14.886-29.772,30.47-29.772c15.699,0,30.586,10.933,30.586,29.772
	c0,18.025-12.328,31.165-30.586,31.165C543.907,120.704,531.578,107.564,531.578,89.539z M576.235,89.539
	c0-9.654-3.371-21.166-14.188-21.166c-10.583,0-14.072,11.512-14.072,21.166c0,10.235,3.023,22.561,14.072,22.561
	C573.329,112.1,576.235,99.774,576.235,89.539z"/>
<path fill="#67686E" d="M602.864,119.31V33.833h15.467v85.476H602.864z"/>
<path fill="#67686E" d="M630.311,43.719c0-4.418,3.721-8.956,8.956-8.956c5.348,0,9.534,4.419,9.534,8.956
	c0,5-3.604,9.768-9.302,9.768C634.031,53.487,630.311,48.719,630.311,43.719z M647.29,61.163v58.147h-15.469V61.163H647.29z"/>
<path fill="#67686E" d="M687.063,113.729c-4.303,3.372-9.535,6.976-14.886,6.976c-9.07,0-16.629-6.976-16.629-17.675
	c0-11.048,8.025-17.327,21.516-21.165l13.721-4.072c-0.814-5.348-5.581-8.72-10.582-8.72c-6.63,0-11.28,2.441-15.35,5.929
	l-5.004-7.327c7.212-5.931,14.305-7.908,22.33-7.908c10.699,0,23.84,3.488,23.84,21.631v23.724c0,4.65,0.583,10.118,2.443,14.187
	h-16.398c-1.165-1.976-1.514-5.349-1.514-8.489L687.063,113.729z M682.179,88.376c-7.561,2.326-11.396,6.744-11.396,13.374
	c0,5.116,3.255,8.606,6.979,8.606c6.162,0,14.188-7.675,13.023-24.77L682.179,88.376z"/>
</svg>
